<svg width="24" height="24" xmlns="http://www.w3.org/2000/svg" fill-rule="evenodd"><title>Groq</title><g class="layer"><title>Layer 1</title><path d="M12.04 2c-3.86-.03-7 3-7.04 6.78-.04 3.78 3.05 6.87 6.91 6.91h2.42v-2.57h-2.29c-2.41.03-4.38-1.86-4.41-4.23-.03-2.36 1.9-4.3 4.31-4.32h.1c2.4 0 4.35 1.91 4.36 4.27v6.31c0 2.34-1.94 4.25-4.32 4.28a4.38 4.38 0 0 1-3.04-1.25l-1.85 1.81A7 7 0 0 0 12.03 22h.09c3.8-.06 6.86-3.08 6.88-6.82v-6.5C18.91 4.96 15.82 2 12.04 2z" fill="#ffffff" id="svg_1"/></g></svg>