<svg xmlns="http://www.w3.org/2000/svg" xmlns:xlink="http://www.w3.org/1999/xlink" viewBox="0,0,256,256" width="128px" height="128px" fill-rule="nonzero"><g fill="#ffffff" fill-rule="nonzero" stroke="none" stroke-width="1" stroke-linecap="butt" stroke-linejoin="miter" stroke-miterlimit="10" stroke-dasharray="" stroke-dashoffset="0" font-family="none" font-weight="none" font-size="none" text-anchor="none" style="mix-blend-mode: normal"><g transform="scale(5.12,5.12)"><path d="M49.726,25.312l-18,-19c-0.003,-0.003 -0.007,-0.004 -0.01,-0.007c-0.074,-0.076 -0.165,-0.133 -0.26,-0.182c-0.022,-0.011 -0.038,-0.031 -0.061,-0.041c-0.074,-0.032 -0.158,-0.038 -0.24,-0.051c-0.05,-0.008 -0.095,-0.031 -0.146,-0.031c-0.001,0 -0.003,0.001 -0.005,0.001c-0.001,0 -0.003,-0.001 -0.004,-0.001h-11.852c-0.026,0 -0.048,0.013 -0.074,0.015c-0.025,-0.002 -0.048,-0.015 -0.074,-0.015c-0.002,0 -0.005,0 -0.007,0c-0.272,0.002 -0.532,0.114 -0.719,0.312l-17.98,18.98c-0.001,0.001 -0.001,0.001 -0.002,0.002l-0.017,0.018c-0.038,0.041 -0.056,0.091 -0.086,0.136c-0.039,0.058 -0.085,0.11 -0.112,0.176c-0.098,0.241 -0.098,0.51 0,0.751c0.027,0.066 0.073,0.118 0.112,0.176c0.03,0.045 0.048,0.095 0.086,0.136l0.017,0.018c0.001,0.001 0.001,0.001 0.002,0.002l17.98,18.979c0.188,0.2 0.451,0.354 0.726,0.312c0.026,0 0.049,-0.013 0.074,-0.015c0.026,0.004 0.048,0.017 0.074,0.017h11.632c0.039,0 0.072,-0.018 0.11,-0.022c0.038,0.004 0.072,0.022 0.11,0.022c0.002,0 0.005,0 0.007,0c0.272,-0.002 0.532,-0.114 0.719,-0.312l18,-19c0.366,-0.386 0.366,-0.99 0,-1.376zM46.675,25h-8.725l-11.575,-11.869l4.611,-4.69zM36.023,25.888c-0.003,0.029 -0.016,0.054 -0.017,0.083l-11.033,11.412l-11.172,-11.462l11.172,-11.364zM28.615,8l-3.636,3.698l-3.607,-3.698zM19.011,8.443l4.565,4.682l-11.674,11.875h-8.577zM19.008,43.554l-15.683,-16.554h8.675c0.018,0 0.032,-0.009 0.05,-0.01l11.532,11.832zM21.358,44l3.621,-3.745l3.65,3.745zM30.99,43.557l-4.621,-4.741l11.424,-11.816h8.882z"></path></g></g></svg>